<?xml version='1.0' encoding='utf-8'?>
<mxfile host="app.diagrams.net"><diagram name="Git Flow CI/CD"><mxGraphModel dx="1000" dy="800" grid="1" gridSize="10" guides="1" tooltips="1" connect="1" arrows="1" fold="1" page="1" pageScale="1" pageWidth="827" pageHeight="1169" math="0" shadow="0"><root><mxCell id="0" /><mxCell id="1" parent="0" /><mxCell id="2" value="feat/*" style="shape=hexagon;fillColor=#FFF2CC;" vertex="1" parent="1"><mxGeometry x="50" y="100" width="140" height="50" as="geometry" /></mxCell><mxCell id="3" value="fix/*" style="shape=hexagon;fillColor=#FFE6CC;" vertex="1" parent="1"><mxGeometry x="50" y="180" width="140" height="50" as="geometry" /></mxCell><mxCell id="4" value="hotfix/*" style="shape=hexagon;fillColor=#F8CECC;" vertex="1" parent="1"><mxGeometry x="50" y="260" width="140" height="50" as="geometry" /></mxCell><mxCell id="5" value="dev" style="shape=hexagon;fillColor=#DAE8FC;" vertex="1" parent="1"><mxGeometry x="250" y="140" width="140" height="50" as="geometry" /></mxCell><mxCell id="6" value="release/*" style="shape=hexagon;fillColor=#E1D5E7;" vertex="1" parent="1"><mxGeometry x="450" y="140" width="140" height="50" as="geometry" /></mxCell><mxCell id="7" value="main" style="shape=hexagon;fillColor=#C4DF9B;" vertex="1" parent="1"><mxGeometry x="650" y="140" width="140" height="50" as="geometry" /></mxCell><mxCell id="8" value="CI: Tests + Sonar" style="rounded=1;fillColor=#D5E8D4;" vertex="1" parent="1"><mxGeometry x="250" y="220" width="160" height="50" as="geometry" /></mxCell><mxCell id="9" value="CD: Deploy to Dev" style="rounded=1;fillColor=#DAE8FC;" vertex="1" parent="1"><mxGeometry x="250" y="300" width="160" height="50" as="geometry" /></mxCell><mxCell id="10" value="CI: Tests + Sonar" style="rounded=1;fillColor=#D5E8D4;" vertex="1" parent="1"><mxGeometry x="650" y="220" width="160" height="50" as="geometry" /></mxCell><mxCell id="11" value="CD: Tag + Deploy to Prod" style="rounded=1;fillColor=#F8CECC;" vertex="1" parent="1"><mxGeometry x="650" y="300" width="200" height="50" as="geometry" /></mxCell><mxCell id="100" edge="1" source="2" target="5" parent="1" style="endArrow=block;html=1;"><mxGeometry relative="1" as="geometry" /></mxCell><mxCell id="101" edge="1" source="3" target="5" parent="1" style="endArrow=block;html=1;"><mxGeometry relative="1" as="geometry" /></mxCell><mxCell id="102" edge="1" source="4" target="7" parent="1" style="endArrow=block;html=1;"><mxGeometry relative="1" as="geometry" /></mxCell><mxCell id="103" edge="1" source="5" target="6" parent="1" style="endArrow=block;html=1;"><mxGeometry relative="1" as="geometry" /></mxCell><mxCell id="104" edge="1" source="6" target="7" parent="1" style="endArrow=block;html=1;"><mxGeometry relative="1" as="geometry" /></mxCell><mxCell id="105" edge="1" source="5" target="8" parent="1" style="endArrow=block;html=1;"><mxGeometry relative="1" as="geometry" /></mxCell><mxCell id="106" edge="1" source="8" target="9" parent="1" style="endArrow=block;html=1;"><mxGeometry relative="1" as="geometry" /></mxCell><mxCell id="107" edge="1" source="7" target="10" parent="1" style="endArrow=block;html=1;"><mxGeometry relative="1" as="geometry" /></mxCell><mxCell id="108" edge="1" source="10" target="11" parent="1" style="endArrow=block;html=1;"><mxGeometry relative="1" as="geometry" /></mxCell></root></mxGraphModel></diagram></mxfile>